# xmcd CD database file
#
# Track frame offsets:
#	150
#	15081
#	33030
#	51602
#	66607
#	86244
#	104336
#	125972
#	141363
#	156225
#	174305
#
# Disc length: 2532 seconds
#
# Revision: 0
# Processed by: cddbd v1.5.2PL0 Copyright (c) Steve Scherf et al.
# Submitted via: CDex 1.51
#
DISCID=9c09e20b
DTITLE=Mark Moroney - The Plattform
DYEAR=2006
DGENRE=Blues
TTITLE0=Down This Road
TTITLE1=Politicians
TTITLE2=The Plattform
TTITLE3=Woman Get Back
TTITLE4=City Living
TTITLE5=Hermits Crals
TTITLE6=Drift Away
TTITLE7=Ignorant People
TTITLE8=High Noon
TTITLE9=Without You
TTITLE10=Time to Unwind
EXTD=YEAR: 2006
EXTT0=
EXTT1=
EXTT2=
EXTT3=
EXTT4=
EXTT5=
EXTT6=
EXTT7=
EXTT8=
EXTT9=
EXTT10=
PLAYORDER=
